<svg aria-hidden="true" width="512" height="512" xmlns="http://www.w3.org/2000/svg"><rect width="474.8" height="474.8" x="19" y="18" ry="96" fill="#fff"/><path d="M256 60A197 197 0 0 0 59 257a197 197 0 0 0 196 197l-1-7v-48a142 142 0 1 1 138-99h17c16 0 28 13 28 28v5a197 197 0 0 0 16-76A197 197 0 0 0 256 60Zm0 133a64 64 0 0 0-64 64 64 64 0 0 0 64 64 64 64 0 0 0 64-64 64 64 0 0 0-64-64Zm93 123c-9 0-16 7-16 16v78c0 9 7 16 16 16h57c9 0 16-7 16-16v-78c0-9-7-16-16-16zm-61 32c-9 0-16 7-16 16v79c0 8 7 16 16 16h57c9 0 16-7 16-16h-18c-15 0-28-12-28-28v-67Z" fill="#000"/></svg>