<svg width="24" height="25" viewBox="0 0 24 25" fill="none" xmlns="http://www.w3.org/2000/svg">
<g id="mdi:user">
<path id="Vector" d="M12 4.08252C13.0609 4.08252 14.0783 4.50395 14.8284 5.25409C15.5786 6.00424 16 7.02165 16 8.08252C16 9.14339 15.5786 10.1608 14.8284 10.9109C14.0783 11.6611 13.0609 12.0825 12 12.0825C10.9391 12.0825 9.92172 11.6611 9.17157 10.9109C8.42143 10.1608 8 9.14339 8 8.08252C8 7.02165 8.42143 6.00424 9.17157 5.25409C9.92172 4.50395 10.9391 4.08252 12 4.08252ZM12 14.0825C16.42 14.0825 20 15.8725 20 18.0825V20.0825H4V18.0825C4 15.8725 7.58 14.0825 12 14.0825Z" fill="#00B6FF"/>
</g>
</svg>
