<?xml version="1.0" encoding="UTF-8" standalone="no"?>
<svg
   xmlns:dc="http://purl.org/dc/elements/1.1/"
   xmlns:cc="http://creativecommons.org/ns#"
   xmlns:rdf="http://www.w3.org/1999/02/22-rdf-syntax-ns#"
   xmlns:svg="http://www.w3.org/2000/svg"
   xmlns="http://www.w3.org/2000/svg"
   xmlns:sodipodi="http://sodipodi.sourceforge.net/DTD/sodipodi-0.dtd"
   xmlns:inkscape="http://www.inkscape.org/namespaces/inkscape"
   role="img"
   focusable="false"
   aria-hidden="true"
   viewBox="0 0 512 512"
   version="1.1"
   id="svg4"
   sodipodi:docname="Blender.svg"
   width="512"
   height="512"
   inkscape:version="0.92.4 (5da689c313, 2019-01-14)">
  <metadata
     id="metadata10">
    <rdf:RDF>
      <cc:Work
         rdf:about="">
        <dc:format>image/svg+xml</dc:format>
        <dc:type
           rdf:resource="http://purl.org/dc/dcmitype/StillImage" />
        <dc:title></dc:title>
      </cc:Work>
    </rdf:RDF>
  </metadata>
  <defs
     id="defs8" />
  <sodipodi:namedview
     pagecolor="#ffffff"
     bordercolor="#666666"
     borderopacity="1"
     objecttolerance="10"
     gridtolerance="10"
     guidetolerance="10"
     inkscape:pageopacity="0"
     inkscape:pageshadow="2"
     inkscape:window-width="640"
     inkscape:window-height="480"
     id="namedview6"
     showgrid="false"
     inkscape:zoom="1.7142857"
     inkscape:cx="254.0327"
     inkscape:cy="237.36096"
     inkscape:current-layer="svg4"
     inkscape:pagecheckerboard="true" />
  <path
     style="fill:#ea7600;fill-opacity:1;stroke-width:37.32494354;stroke:none"
     d="m 266.19365,73.355637 c -6.80961,0 -13.41011,2.028575 -18.51667,5.613346 -5.48959,3.834726 -8.60181,8.872098 -8.82093,14.288748 -0.20069,5.05222 2.18416,9.913919 6.77972,13.705169 9.03685,7.12934 18.09083,14.43075 27.11891,21.72418 8.76249,7.08262 17.76927,14.40503 26.75441,21.50576 l -171.97178,-0.1449 c -19.66805,0 -33.039151,9.25028 -35.794028,24.71307 -1.210447,6.77252 0.910974,14.19854 5.686213,19.90172 5.066245,6.04695 12.414505,9.40424 20.703685,9.40424 h 13.12205 c 18.11225,0 36.28904,-0.0354 54.45651,-0.0724 H 203.062 l -156.079491,115.47384 -0.656103,0.43831 c -8.718668,6.68451 -14.442057,16.00977 -15.673554,25.66106 -0.933487,7.31192 0.794666,14.05511 4.957211,19.39133 4.961065,6.36102 12.691978,9.84147 21.797187,9.84147 8.944802,0 18.09412,-3.37975 25.733805,-9.54986 L 167.41378,296.2141 c -0.36008,3.36887 -0.77897,8.36931 -0.72902,11.95553 0.0949,5.67927 1.92505,17.06644 4.81143,26.31708 5.96378,19.01278 15.96907,36.41032 29.81621,51.68654 14.40811,15.89205 32.00001,28.44601 52.1966,37.3978 21.35272,9.44336 44.31552,14.28838 68.23466,14.28838 h 0.2188 c 23.9954,-0.0724 47.03226,-4.95659 68.45335,-14.50717 20.22989,-9.05758 37.76993,-21.72492 52.12374,-37.6166 13.8296,-15.35302 23.86381,-32.76251 29.81618,-51.75935 2.94143,-9.39699 4.8262,-19.1392 5.61332,-28.94118 0.73535,-9.49191 0.39738,-19.16602 -0.94763,-28.72276 -2.62773,-18.49151 -9.0182,-36.03503 -19.02714,-52.12378 -8.73002,-14.04096 -19.94595,-26.4924 -33.31539,-37.10619 V 187.01 L 284.27293,79.190315 c -0.11628,-0.108673 -0.21155,-0.217345 -0.29161,-0.2898 -4.66917,-3.575353 -10.98592,-5.54053 -17.78766,-5.54053 z"
     id="path818" />
  <path
     style="fill:#ffffff;fill-opacity:1;stroke-width:37.32494354;stroke:none"
     d="m 323.49328,196.63009 c 52.71434,0 95.42644,38.26936 95.42644,85.43906 9.1e-4,47.17407 -42.7121,85.36626 -95.42644,85.36626 -52.71521,0 -95.49938,-38.19219 -95.49937,-85.36626 0,-47.1697 42.78503,-85.43906 95.49937,-85.43906 z"
     id="path832" />
  <path
     style="fill:#265787;fill-opacity:1;stroke-width:37.32494354"
     d="m 378.5216,274.53083 c 0.77666,14.0801 -4.84708,27.15243 -14.72188,36.83017 -10.04572,9.85884 -24.38108,16.05143 -40.40898,16.05143 -16.02353,0 -30.35976,-6.19259 -40.40897,-16.05143 -9.87128,-9.67774 -15.48359,-22.74862 -14.71139,-36.81894 0.75818,-13.67619 7.42932,-25.74799 17.47766,-34.29589 9.88093,-8.4048 23.14957,-13.5331 37.64182,-13.5331 14.49576,0 27.76002,5.12903 37.64183,13.5331 10.05096,8.5479 16.7247,20.6121 17.48991,34.28466 z"
     id="path2"
     inkscape:connector-curvature="0" />
</svg>
