<svg id="SvgjsSvg1001" width="288" height="288" xmlns="http://www.w3.org/2000/svg" version="1.1" xmlns:xlink="http://www.w3.org/1999/xlink" xmlns:svgjs="http://svgjs.com/svgjs"><defs id="SvgjsDefs1002"></defs><g id="SvgjsG1008"><svg xmlns="http://www.w3.org/2000/svg" aria-hidden="true" viewBox="0 0 512 512" width="288" height="288"><path fill="#6d6d6d" d="M256 60.41A196.73 196.73 0 0 0 59.27 257.14a196.73 196.73 0 0 0 195.95 196.67c-.5-2.1-.8-4.3-.8-6.56v-47.87c-22.77-.22-45.44-6-65.51-16.74a142.3 142.3 0 0 1-60.24-189.06 142.48 142.48 0 0 1 51.78-57.05 143.07 143.07 0 0 1 72.2-21.68 142.31 142.31 0 0 1 139.04 185.18h17.76c15.51 0 28 12.48 28 28v4.87a196.73 196.73 0 0 0 15.28-75.76A196.73 196.73 0 0 0 256 60.41Z" class="colorffd500 svgShape"></path><path fill="#6d6d6d" d="M320.05 257.14A64.05 64.05 0 0 1 256 321.2a64.05 64.05 0 0 1-64.05-64.05A64.05 64.05 0 0 1 256 193.1a64.05 64.05 0 0 1 64.05 64.05Z" class="colorffd500 svgShape"></path><path fill="#adadad" d="M288.19 348.32c-8.86 0-16 7.14-16 16v78.3c0 8.86 7.14 16 16 16h56.77c8.74 0 15.78-6.94 15.99-15.63h-17.77c-15.5 0-28-12.49-28-28v-66.67Z" class="colordb9eff svgShape"></path><path fill="#adadad" d="M348.95 316.07h56.78c8.86 0 16 7.13 16 16v78.28c0 8.87-7.14 16-16 16h-56.78c-8.86 0-16-7.13-16-16v-78.28c0-8.87 7.14-16 16-16z" class="colordb9eff svgShape"></path></svg></g></svg>