<svg xmlns="http://www.w3.org/2000/svg" width="512" height="512" aria-hidden="true"><defs><filter id="c" width="1.18" height="1.18" x="-.09" y="-.09" color-interpolation-filters="sRGB"><feGaussianBlur stdDeviation="15.03"/></filter><filter id="a" width="1.12" height="1.12" x="-.06" y="-.06" color-interpolation-filters="sRGB"><feGaussianBlur stdDeviation="9.81"/></filter><mask id="b" maskUnits="userSpaceOnUse"><path fill="#fff" stroke-linecap="round" stroke-linejoin="round" stroke-width="12.13" d="M114.67 17.5H397.5a95.8 95.8 0 0 1 96 96v282.83c0 53.19-42.82 96-96 96H114.67c-53.19 0-96-42.81-96-96V113.5c0-53.18 42.81-96 96-96z"/></mask></defs><path fill="#4f215b" d="M114.67 17.5H397.5a95.8 95.8 0 0 1 96 96v282.83c0 53.19-42.82 96-96 96H114.67c-53.19 0-96-42.81-96-96V113.5c0-53.18 42.81-96 96-96z"/><path fill="#4f215b" stroke="#000" stroke-linecap="round" stroke-linejoin="round" stroke-width="12.13" d="M114.67 17.5H397.5a95.8 95.8 0 0 1 96 96v282.83c0 53.19-42.82 96-96 96H114.67c-53.19 0-96-42.81-96-96V113.5c0-53.18 42.81-96 96-96z" filter="url(#a)" mask="url(#b)" style="mix-blend-mode:saturation"/><path fill="#ffd500" d="M256 60.41A196.73 196.73 0 0 0 59.27 257.14a196.73 196.73 0 0 0 195.95 196.67c-.5-2.1-.8-4.3-.8-6.56v-47.87c-22.77-.22-45.44-6-65.51-16.74a142.3 142.3 0 0 1-60.24-189.06 142.48 142.48 0 0 1 51.78-57.05 143.07 143.07 0 0 1 72.2-21.68 142.31 142.31 0 0 1 139.04 185.18h17.76c15.51 0 28 12.48 28 28v4.87a196.73 196.73 0 0 0 15.28-75.76A196.73 196.73 0 0 0 256 60.41Zm0 132.68a64.05 64.05 0 0 0-64.05 64.05A64.05 64.05 0 0 0 256 321.2a64.05 64.05 0 0 0 64.05-64.05A64.05 64.05 0 0 0 256 193.1Z" filter="url(#c)"/><path fill="#ffd500" d="M256 60.41A196.73 196.73 0 0 0 59.27 257.14a196.73 196.73 0 0 0 195.95 196.67c-.5-2.1-.8-4.3-.8-6.56v-47.87c-22.77-.22-45.44-6-65.51-16.74a142.3 142.3 0 0 1-60.24-189.06 142.48 142.48 0 0 1 51.78-57.05 143.07 143.07 0 0 1 72.2-21.68 142.31 142.31 0 0 1 139.04 185.18h17.76c15.51 0 28 12.48 28 28v4.87a196.73 196.73 0 0 0 15.28-75.76A196.73 196.73 0 0 0 256 60.41Z"/><path fill="#ffd500" d="M320.05 257.14A64.05 64.05 0 0 1 256 321.2a64.05 64.05 0 0 1-64.05-64.05A64.05 64.05 0 0 1 256 193.1a64.05 64.05 0 0 1 64.05 64.05Z"/><path fill="#db9eff" d="M288.19 348.32c-8.86 0-16 7.14-16 16v78.3c0 8.86 7.14 16 16 16h56.77c8.74 0 15.78-6.94 15.99-15.63h-17.77c-15.5 0-28-12.49-28-28v-66.67Z"/><path fill="#db9eff" d="M348.95 316.07h56.78c8.86 0 16 7.13 16 16v78.28c0 8.87-7.14 16-16 16h-56.78c-8.86 0-16-7.13-16-16v-78.28c0-8.87 7.14-16 16-16z"/></svg>